<?xml version="1.0" standalone="no"?>
<!DOCTYPE svg PUBLIC "-//W3C//DTD SVG 20010904//EN"
 "http://www.w3.org/TR/2001/REC-SVG-20010904/DTD/svg10.dtd">
<svg version="1.0" xmlns="http://www.w3.org/2000/svg"
 width="1280.000000pt" height="1254.000000pt" viewBox="0 0 1280.000000 1254.000000"
 preserveAspectRatio="xMidYMid meet">
<metadata>
Created by potrace 1.15, written by Peter Selinger 2001-2017
</metadata>
<g transform="translate(0.000000,1254.000000) scale(0.100000,-0.100000)"
fill="#000000" stroke="none">
<path d="M6885 12530 c-394 -35 -764 -146 -1030 -310 -184 -113 -366 -286
-416 -396 -85 -187 -119 -321 -119 -466 0 -170 48 -287 165 -403 82 -82 151
-121 355 -200 166 -65 248 -105 273 -133 29 -32 46 -91 47 -161 0 -119 -51
-171 -240 -240 -41 -14 -201 -16 -1695 -21 l-1650 -5 -46 -21 c-66 -31 -114
-78 -146 -142 l-28 -57 -5 -1670 c-4 -1354 -8 -1678 -19 -1710 -24 -72 -74
-156 -110 -183 -31 -24 -42 -27 -105 -25 -111 3 -155 20 -192 75 -18 26 -64
129 -104 230 -86 219 -132 301 -217 384 -187 185 -457 205 -803 59 -129 -55
-200 -111 -313 -245 -130 -156 -235 -340 -312 -544 -47 -128 -110 -376 -124
-491 -6 -49 -18 -146 -27 -215 -42 -334 -23 -692 57 -1019 88 -359 240 -650
453 -868 88 -89 112 -107 186 -142 370 -173 663 -160 860 39 86 87 117 142
209 372 79 198 117 270 149 287 11 6 48 15 83 20 72 12 128 3 168 -27 38 -28
88 -116 117 -207 l26 -80 10 -1615 c5 -888 14 -1631 19 -1650 13 -54 63 -126
110 -160 87 -62 64 -61 934 -55 434 3 1168 7 1631 10 918 6 944 8 1116 65 388
130 588 386 589 750 0 193 -35 322 -120 452 -109 165 -250 264 -537 378 -178
71 -184 75 -184 109 0 16 9 60 21 97 16 53 31 78 64 110 179 173 517 314 880
369 320 48 818 -17 1157 -151 159 -63 289 -139 384 -226 55 -51 78 -101 98
-210 6 -35 4 -39 -26 -58 -18 -11 -96 -41 -173 -67 -301 -100 -463 -222 -565
-423 -112 -223 -118 -518 -15 -735 115 -241 402 -419 751 -465 66 -8 516 -10
1704 -8 l1615 3 46 21 c60 28 125 93 153 153 20 45 21 56 18 416 -13 1924 -24
2933 -33 3003 -26 212 -128 444 -255 578 -143 149 -307 216 -534 217 -235 0
-401 -59 -549 -198 -120 -114 -191 -229 -284 -466 -58 -146 -77 -179 -102
-179 -11 0 -54 10 -95 22 -87 26 -128 63 -215 193 -112 168 -198 386 -252 641
-25 119 -27 147 -28 364 0 222 5 284 35 430 6 25 19 91 30 148 52 259 174 521
322 694 42 48 58 60 121 82 39 14 87 28 105 31 38 8 29 23 124 -225 32 -85 75
-184 95 -220 97 -177 246 -305 423 -364 377 -125 784 35 967 381 56 107 98
230 118 349 14 89 16 259 13 1734 -3 1540 -4 1637 -21 1674 -29 66 -83 123
-145 153 l-57 28 -1685 5 -1685 5 -60 28 c-115 54 -155 100 -155 179 0 62 24
155 46 179 26 29 93 61 269 131 181 72 263 114 332 170 208 171 256 430 142
754 -61 172 -84 211 -198 324 -242 242 -573 397 -1021 481 -63 11 -128 27
-145 35 -87 39 -519 64 -750 44z"/>
</g>
</svg>
