<svg version="1.0" xmlns="http://www.w3.org/2000/svg" width="1706.7" height="1672" viewBox="0 0 1280 1254"><path d="M689 1c-40 4-77 15-103 31-19 11-37 29-42 40-9 18-12 32-12 46 0 17 5 29 17 40 8 9 15 13 35 21 17 6 25 10 27 13 3 3 5 9 5 16 0 12-5 17-24 24-4 1-20 2-169 2l-165 1-5 2c-7 3-11 7-15 14l-2 5-1 168c0 135-1 167-2 171-2 7-7 15-11 18-3 2-4 2-10 2-12 0-16-2-20-7l-10-23c-9-22-13-30-22-39-18-18-45-20-80-6-13 6-20 12-31 25-13 16-24 34-32 54a297 297 0 0 0-15 71c-4 33-2 69 6 102 9 36 24 65 45 87 9 9 12 10 19 14 37 17 66 16 86-4 9-9 12-14 21-37 8-20 12-27 15-29l8-2c7-1 13 0 17 3s9 11 12 21l2 8 1 161 2 165c1 5 6 13 11 16 9 6 6 6 93 6l164-1c91-1 94-1 111-7 39-13 59-39 59-75 0-19-3-32-12-45-11-17-25-27-54-38-17-7-18-7-18-11l2-10c2-5 3-7 7-11 17-17 51-31 88-37 32-4 81 2 115 16 16 6 29 13 39 22 5 5 7 10 9 21 1 4 1 4-2 6l-18 7c-30 10-46 22-56 42a88 88 0 0 0-1 73c11 25 40 42 75 47l170 1 162-1 4-2c6-2 13-9 15-15 2-4 2-6 2-42l-3-300c-3-21-13-44-26-58a69 69 0 0 0-53-21c-24 0-40 6-55 20-12 11-19 22-28 46-6 15-8 18-11 18l-9-2c-9-3-13-7-22-20a185 185 0 0 1-28-100 170 170 0 0 1 7-58c5-26 17-52 32-69 4-5 6-6 12-8l11-3c4-1 3-3 12 22l10 22c9 18 24 31 42 36 38 13 78-3 97-38 5-10 9-23 11-35 2-9 2-26 2-173l-2-167c-3-7-9-13-15-16l-6-3h-168l-169-1-6-2c-11-6-15-10-15-18 0-6 2-16 5-18 2-3 9-6 26-13 19-7 27-12 34-17 20-17 25-43 14-76-6-17-9-21-20-32-24-24-57-40-102-48l-15-4c-8-4-51-6-75-4z"/></svg>