<svg version="1.0" xmlns="http://www.w3.org/2000/svg" width="1585.3" height="1706.7" viewBox="0 0 1189 1280"><path d="M629 2a109 109 0 0 0-18 211c13 4 33 7 34 4l2-10a109 109 0 0 1 197-51l6 7-1-10a109 109 0 0 0-206-38c-8 17-12 33-11 54 1 15 3 24 9 38l4 9c1 2-5-1-14-8a109 109 0 0 1 60-193l9-1-5-2c-6-4-18-8-27-10-10-2-29-2-39 0z"/><path d="M490 74a109 109 0 1 0 156 146l-3 25c-10 38-40 68-78 79-10 2-12 2-28 2s-18 0-27-2c-27-7-48-23-65-47a107 107 0 0 0-91-55c-20-2-36 2-52 10-12 6-20 11-29 21a108 108 0 0 0-21 124l2 6a110 110 0 0 1-5-183c14-10 34-17 52-19l9-1-8-3c-22-10-46-13-69-9-27 6-53 24-68 47a109 109 0 0 0 66 166l23 3a109 109 0 0 1-53 204 110 110 0 0 0-104 84c-2 11-2 39 0 50a109 109 0 0 0 102 84l5-1v-4a110 110 0 0 1 92-102 108 108 0 0 1 111 52 110 110 0 0 0 180 9c7-9 16-26 19-38 2-9 2-12 2-27 0-16 0-19-2-27a132 132 0 0 0-10-27c2 0 14 10 21 17 20 20 30 43 32 71a109 109 0 0 1-103 114c-29 2-45 7-63 19-9 6-24 20-30 29-25 37-25 85-1 122a110 110 0 0 0 87 49c2 1 2 1-4 4-17 8-31 11-51 10a110 110 0 0 1-104-119c2-15 5-26 13-42l9-20a109 109 0 0 0-103-143 106 106 0 0 0-94 53l9-4c13-6 23-8 39-9a111 111 0 0 1 110 81c3 10 3 12 3 28 0 15 0 18-2 26l-9 23a110 110 0 0 0 45 155c18 9 32 12 53 11a112 112 0 0 0 86-47l4-7-8-6a109 109 0 0 1 52-197c33-3 40-5 56-12 11-6 18-10 26-19 25-23 37-54 34-88-4-50-43-91-92-99-13-2-14-2-26 3a108 108 0 0 1-94-1 109 109 0 0 1-47-150c9-18 12-29 14-43a110 110 0 0 0-68-112c-14-6-22-8-40-8a108 108 0 0 0-90 47l-5 6a109 109 0 0 1 171-88c11 7 22 18 31 32a111 111 0 0 0 119 52 108 108 0 0 0 75-152l-5-9 8 5c46 32 60 96 32 144-18 31-48 51-84 54-33 3-40 5-55 12-12 6-18 10-27 19-25 23-37 54-34 88 4 50 43 91 92 99 13 2 14 2 26-3a108 108 0 0 1 94 1 109 109 0 0 1 47 150c-9 18-12 29-14 43a110 110 0 0 0 68 112c14 6 22 7 40 7 21 1 32-2 50-11 16-8 30-21 40-35l5-6a109 109 0 0 1-171 88c-11-7-22-18-31-32a111 111 0 0 0-119-52 108 108 0 0 0-75 152l5 9 8-4a109 109 0 0 1 132 32c16 20 23 41 23 66 0 17-3 33-10 47l-3 7 6-4c7-5 24-21 29-29a109 109 0 1 0-185-117c-1 0 1-16 4-26 9-37 39-67 78-78 9-2 11-2 27-2s19 0 27 2c27 7 49 23 65 47 10 15 16 23 22 28 21 18 43 27 69 28 20 1 36-3 53-11 12-6 19-11 28-21a108 108 0 0 0 21-124l-2-6c1-1 15 9 22 16a110 110 0 0 1-16 167c-15 10-35 17-53 19l-8 1 8 3c21 10 45 13 68 8a109 109 0 0 0 2-213l-23-2c1 2-13-8-19-14a109 109 0 0 1 72-190 110 110 0 0 0 104-84c2-11 2-39 0-50a109 109 0 0 0-102-84h-4l-1 5a110 110 0 0 1-92 102 108 108 0 0 1-110-52 110 110 0 0 0-181-9c-7 9-15 26-19 38-2 10-2 12-2 28 0 15 0 18 2 26a132 132 0 0 0 10 27c-2 0-14-10-21-17-20-20-30-43-32-71a109 109 0 0 1 104-114c28-2 44-7 62-19 9-6 24-20 30-29 25-37 25-85 1-122a110 110 0 0 0-87-49c-2-1-2-1 4-4 17-8 31-11 51-10a110 110 0 0 1 104 119c-1 15-5 26-13 42l-8 20a109 109 0 0 0 103 143 106 106 0 0 0 93-53l-9 4c-13 6-23 8-39 9a111 111 0 0 1-110-81c-3-9-3-12-3-27 0-16 0-18 2-27l9-23a110 110 0 0 0-45-155c-18-8-32-11-52-11a104 104 0 0 0-86 47c-5 7-6 8-14 12-15 7-37 11-52 10a110 110 0 0 1-89-163l-6 4zM336 373a109 109 0 0 1 69 159 106 106 0 0 0-8 89 109 109 0 0 0 193 27l4-6a109 109 0 0 1-202 54c-23-35-55-53-94-53-23 0-41 5-61 18-9 6-23 20-29 29a111 111 0 0 0-8 109l2 6-19-14c-44-43-45-112-2-156 20-21 44-31 77-32a109 109 0 0 0 1-219c-4-1 18-10 32-13 10-2 35-1 45 2zm657 106 13 10c44 43 45 112 2 156-20 21-44 31-77 33-19 1-34 5-48 12a109 109 0 0 0 48 206c1 1-12 7-22 10-23 7-49 5-71-4a110 110 0 0 1-54-154c8-17 10-24 12-36a109 109 0 0 0-197-79l-4 5a109 109 0 0 1 202-54c23 35 55 53 94 53 23 0 41-5 61-18 9-6 23-20 29-29 9-13 16-31 18-46 3-21-1-45-10-63l-2-6 6 4z"/><path d="M99 240c-8 6-19 16-25 24-7 9-15 27-19 39-2 9-2 11-2 27 0 14 0 18 2 26 8 32 28 56 58 71 14 7 23 10 38 11 25 3 55-5 75-21 10-8 28-27 28-31l-5 2a109 109 0 0 1-144-152l-6 4zM964 258c-22 5-38 13-54 29a109 109 0 0 0 64 186l10 2 1-1-7-5a109 109 0 0 1 61-199l-20-9c-16-5-39-6-55-3z"/><path d="M1067 311c-47 6-84 40-94 88a137 137 0 0 0 1 48c3 10 10 26 12 26l8-3a109 109 0 0 1 133 33c7 9 16 27 19 39a111 111 0 0 1-10 80l18-14c45-42 46-113 3-156a108 108 0 0 0-169 18c-2 2-2 2-2-6a109 109 0 0 1 196-55c8 10 7 10 7 2a110 110 0 0 0-122-100zM255 393c-2 26-15 53-34 71-14 13-30 21-49 26a111 111 0 0 1-116-45l-4-5v8c4 47 40 88 87 98 48 10 99-15 120-60 14-30 14-64 1-92l-5-9v8zM47 662a108 108 0 0 0-15 166 108 108 0 0 0 169-18c2-2 2-2 2 6A109 109 0 0 1 7 871c-7-10-7-10-6-2 2 26 12 48 29 67 16 16 32 25 55 31 17 4 41 3 58-3 27-9 51-29 63-55 9-17 12-28 11-50 0-14 0-17-2-25-3-11-10-27-12-27l-8 4a109 109 0 0 1-133-34c-7-9-16-27-19-38-6-25-3-53 8-75l2-6-6 4zM1011 733c-35 6-66 29-81 61-14 30-14 63-1 92l5 10v-9c3-38 27-72 60-89 16-8 26-10 46-11a111 111 0 0 1 94 48l3 6v-9a109 109 0 0 0-126-99z"/><path d="m204 806 7 5a109 109 0 0 1-61 199l7 4c18 8 32 10 51 10a108 108 0 0 0 7-217l-10-2-1 1zM1014 842c-17 2-38 11-51 21-11 8-28 27-28 31l5-2a109 109 0 0 1 144 152l6-4c8-6 19-16 25-24 7-9 15-27 19-39 2-9 2-11 2-27 0-14 0-18-2-26-8-32-28-56-58-71l-19-8c-14-4-30-5-44-3zM544 1063l-2 11a109 109 0 0 1-197 50l-6-7 1 10a109 109 0 0 0 205 39c9-18 12-34 12-55-1-15-3-24-9-37l-4-10c-1-2 5 1 14 8a109 109 0 0 1-61 193l-9 1 5 2a109 109 0 1 0 85-200c-13-5-33-8-34-5z"/></svg>