<svg version="1.0" xmlns="http://www.w3.org/2000/svg" width="1537.3" height="1706.7" viewBox="0 0 1153 1280"><path d="M302 130c-10 4-22 18-30 33a232 232 0 0 0-13 108 524 524 0 0 0 25 115l1-15a932 932 0 0 1 23-169c3 1 6 9 9 22l6 18c2 5 2 5 0 9-2 6-1 12 4 24 3 8 3 10 3 17l1 12c2 6 7 12 13 15 5 2 5 2 6 7 1 10 8 18 20 24 6 4 7 5 10 9 2 7 6 10 18 16 4 3 11 7 13 10 9 7 17 10 27 11 9 0 10 0 12 3 3 4 7 5 16 6l13 4c5 3 7 3 18 4l15 1c5 2 9 7 12 12l3 6c3 0 17-20 24-36 6-12 13-28 12-29l-10 1-29 1a125 125 0 0 1-101-41c-14-15-24-29-36-53-14-27-39-88-46-112-8-29-21-40-39-33z"/><path d="M271 133a421 421 0 0 0-35 92c-10 40-15 76-19 127-2 23-2 100 0 122a624 624 0 0 0 70 248l-4-58-4-18c-18-58-25-129-24-220 1-30 3-70 5-86l-3-24c-13-80-8-123 20-172 6-11 6-13 1-14-3 0-4 1-7 3zM840 132c-9 4-16 14-22 31-9 26-27 67-43 98-22 44-43 71-69 89-15 10-29 15-49 19a257 257 0 0 1-69-1c-1 0 6 20 11 31 8 16 20 34 23 34l3-5c2-5 6-10 10-12 2-1 8-2 17-2 12-1 15-2 19-4l12-3c11-1 14-2 17-6 2-3 3-3 6-3 4 1 16-1 22-3l10-7 17-10c12-7 15-10 18-16 2-4 3-5 10-8 12-6 21-17 21-26 0-3 2-5 4-5 3 0 10-6 13-11 2-4 3-6 3-14 0-9 0-10 4-19 5-12 6-17 4-23-1-5-1-6 1-12a244 244 0 0 0 9-29c2-5 6-10 7-9l5 32a910 910 0 0 1 14 154 500 500 0 0 0 31-150c0-20-5-54-11-69-10-28-32-47-48-41z"/><path d="M878 135c-1 3-1 5 4 13a165 165 0 0 1 23 97c1 32 0 38-7 72l-3 19 1 36c2 43 1 101-1 129-5 62-13 106-27 148-6 19-6 21-9 51-3 31-3 30 3 22l30-61a598 598 0 0 0 44-199c2-26 2-109 0-133-5-64-14-110-32-160-9-26-12-30-19-34-5-2-6-2-7 0zM246 160a419 419 0 0 0-79 135l-8 35 17-24 19-22 11-12 11-24 15-34 21-60-7 6zM908 161a866 866 0 0 0 35 98l9 19 10 10 21 27 13 18a332 332 0 0 0-53-130l-33-42-3-2 1 2zM304 252l-7 43c-4 18-4 29-2 38 2 7 9 20 13 25s5 4 11-6c6-11 8-16 9-28v-10l-4-9c-4-8-4-9-4-16l-2-13c-1-3-2-8-2-17-1-12-1-15-4-23l-4-10-4 26zM844 240c-4 9-4 11-4 20 0 8 0 12-2 17-2 4-3 11-3 16-1 7-1 9-4 14l-5 11c-1 7 0 17 2 26 2 5 10 20 13 21 2 2 13-15 17-25 3-10 3-16 1-33a1804 1804 0 0 1-11-77l-4 10zM219 260a601 601 0 0 0-3 460l1-29 2-67c1-38 1-67-1-78l-6-71c-2-26-2-121 0-142a1264 1264 0 0 1 7-73zM523 264a148 148 0 0 1-54 81l-7 6c0 1 17 9 22 10h8c4-2 13-14 25-33l14-19 4-6v-13c0-10 0-14-2-19-2-6-6-13-8-13l-2 6zM624 265c-5 6-7 14-8 27v11l4 5 12 18c18 28 25 37 30 37s27-8 27-10l-2-2c-10-7-28-27-37-39-9-14-18-33-19-45-2-10-3-10-7-3z"/><path d="m937 265 2 17a1083 1083 0 0 1-6 258l-3 27-1 60-1 82c0 25 0 24 8 5a655 655 0 0 0 43-212 640 640 0 0 0-42-237zM482 278c-4 19-10 35-23 56l-5 10c0 1 4 4 6 4s16-14 24-24c11-13 13-16 13-30l-2-15c-1-4-7-12-9-12-1 0-3 4-4 11zM665 270l-6 7c-2 4-2 5-3 19v14l7 9 18 21 11 11 3-3 3-2-3-5c-15-26-25-53-25-68 0-6-1-6-5-3zM537 307l-11 16c-11 18-19 30-24 35l-4 5 2 1c4 2 26 2 29 1 3-2 9-14 12-25 4-13 4-36 0-37l-4 4zM610 304l-3 18 2 14c1 9 8 27 11 29 2 2 9 2 20 1l11-1-5-8c-6-7-9-13-17-27-10-18-18-29-19-26zM184 323l-11 25a770 770 0 0 0-41 278l10-42c11-47 17-75 24-95l4-15 1-28 3-42a662 662 0 0 1 18-96l-8 15zM180 313l-8 12c-9 12-18 22-20 22-1 0-1-4 1-13l1-7c-1-1-8 13-11 22a258 258 0 0 0-11 55l9-10 12-14c3-3 4-4 6-11 3-11 10-28 17-44 6-13 7-16 4-12z"/><path d="m965 315 3 15c10 40 15 85 15 131v21l4 15c7 23 11 44 20 86 9 46 10 48 11 48s1-66-1-94a561 561 0 0 0-52-222zM334 321c0 2-3 19-5 22-2 7-5 14-8 16-3 3-3 7-2 17 2 10 5 18 11 24 6 5 7 5 13-4 4-7 9-17 12-30 5-15 5-15 0-19-5-3-9-9-10-15-1-4-2-6-6-8l-5-3zM977 322l5 12 15 40c2 9 3 10 8 15l10 11c6 9 9 12 9 11 2-3-6-43-11-57l-8-18v17c-2 2-9-6-19-20-6-9-9-12-9-11zM814 327c-3 2-4 3-5 7-3 8-7 15-12 17-5 3-5 1 0 18 3 12 7 22 12 31 5 8 6 9 11 6 7-5 13-18 13-32 0-7 0-8-2-11-6-6-9-18-11-31l-1-7-5 2zM262 371l-1 76c0 53 0 70 4 101 4 40 13 75 24 96l5 9v-60l2-69 2-8-5-17c-7-24-10-34-11-43v-36c1-5 1-7-2-12a301 301 0 0 1-15-60l-3 23z"/><path d="M291 364c-8 62-2 114 18 155 7 15 7 16 7-29 0-50 1-59 8-76l1-5-5-10-5-11v-10l-1-11-2 2c-2 1-2 1-5-2l-8-11-5-8-3 16zM853 362c-7 10-10 13-12 11s-3 0-3 7c0 8-2 15-8 25l-4 8 2 7c5 14 5 18 5 46v48c-1 26-1 26 10 2 12-24 17-45 20-78 2-23-1-81-4-84 0-1-3 2-6 8zM361 367c-4 13-6 19-11 27-4 6-4 8-4 11 1 4 9 15 14 18 3 3 4 3 7 2 11-3 17-17 20-41v-7l-5-5-6-8-4-3-5-2-3-3-3 11zM888 358l-5 18c-4 18-8 32-11 36l-1 23c0 23-2 29-12 63l-7 20 1 24v53l-2 47v17l2-2c7-8 18-39 23-61a883 883 0 0 0 12-238zM785 362l-5 2c-2 0-3 1-5 5-2 2-4 6-7 7-3 3-4 4-4 7l5 30c2 6 8 12 12 15 5 2 8 1 14-5 9-9 12-17 8-22-5-7-12-25-13-35l-2-6-3 2z"/><path d="m393 380-3 13c-4 17-6 21-9 26-6 8-7 11-5 19 1 5 8 12 12 14 3 1 3 1 7-1 4-3 10-10 13-16 2-4 4-15 6-30 1-10 1-10-1-12l-8-6c-8-6-12-8-12-7zM750 387l-10 7-4 3v11l2 18c2 12 9 24 18 29l3 2 3-2c5-3 11-9 12-13v-13l-4-4c-3-4-5-9-8-26l-5-16-7 4zM419 403l-2 10-3 15c-4 17-1 31 8 38 5 4 7 4 11 0 5-4 9-13 11-22 2-8 4-27 4-34v-6h-9c-7 0-8 0-13-3l-6-3-1 5zM725 403c-4 3-5 3-14 3h-9v16c1 26 5 38 14 47 5 5 5 5 13-3s10-21 6-34c-1-3-3-11-3-18l-2-13-5 2zM146 406c-20 25-31 69-31 115 0 16 1 16 7 2l6-14c2-1 3-6 4-16a417 417 0 0 1 17-90l-3 3zM454 412l-1 13c-1 6-2 13-4 17-3 10-3 22-1 27 2 4 9 9 13 10 5 1 9 0 14-6 7-6 10-15 11-30 1-7-1-23-2-25-2-1-22-9-26-9l-4-1v4zM327 414c-4 12-5 21-5 41l1 30c3 12 8 29 13 40 4 8 13 22 15 22l1-43c0-44 0-49 4-66 1-7 1-7-1-9-4-3-9-9-12-14-3-6-3-6-5-5-2 2-4 2-6 0s-3-1-5 4zM683 413a493 493 0 0 1-18 7c-2 3-3 19-3 27 2 18 8 29 19 34 5 2 12-1 17-7 3-4 3-4 3-16 0-9 0-12-2-14-1-1-2-6-2-16l-2-16c0-2-6-1-12 1zM1011 425c6 24 9 48 11 74 1 15 1 15 5 24l7 14 2 6 1-4v-40a172 172 0 0 0-29-87l3 13zM819 415c-3 2-3 2-5 0s-3-2-5 3c-2 4-12 15-15 16-1 0-1 3 1 10l3 27-1 65-1 16 4-4a152 152 0 0 0 23-133c-2-2-2-2-4 0zM489 422c0 7 3 25 5 31l4 9c3 4 10 9 13 9 5 0 12-12 13-21 0-8-1-14-6-18l-6-7c-3-4-8-6-16-6h-7v3zM644 421c-5 2-18 15-19 20v11c1 7 1 9 3 13l6 6c3 2 4 2 6 0 3-1 11-10 13-14a361 361 0 0 0 7-36l-6-1-10 1zM360 441c-7 32-2 70 15 112l17 35-2-18a421 421 0 0 1 0-111l-6-2c-10-2-17-10-19-21l-2-4-3 9zM785 443c-4 11-12 18-21 18l-4 1v7c4 31 3 51-2 94l-3 28a279 279 0 0 0 36-91c2-15 2-42 0-53-3-12-3-12-6-4zM405 450l-5 5c-4 2-5 6-6 20-1 26 5 45 28 85l10 16 2 2v-19c0-28-1-37-6-45-5-10-7-17-8-30 0-11 0-12-3-13-3-2-7-9-9-17l-1-7-2 3zM741 457l-8 16c-3 3-4 4-4 11-1 14-5 26-11 34-3 4-4 14-6 33-1 15-1 29 1 29 3-1 26-42 31-53 8-19 9-24 10-43 0-19 0-22-7-28l-5-4-1 5zM488 471c1 14 4 25 9 35 3 8 14 23 16 23s2-5 1-16l-2-22v-11l-5-2c-6-3-11-7-15-14l-4-5v12zM657 465c-3 5-9 11-16 13l-6 3v12l-2 17c-1 6-2 19 0 20 1 1 12-12 16-19a94 94 0 0 0 11-50l-3 4zM440 467c-3 4-9 9-11 9-3 0-3 4-2 15 2 17 7 27 20 40l16 12c8 5 10 6 9 3-2-3-5-20-7-35-3-23-3-25-8-27-4-2-6-5-11-14l-4-6-2 3zM702 474c-4 7-10 13-13 13-2 0-4 6-7 27a264 264 0 0 1-7 36c4 0 21-12 28-20 12-12 17-24 18-40v-10l-3-1c-3-1-8-6-10-9 0-2-1-3-2-3l-5 7zM479 474l-9 8-5 3 1 5c3 15 11 31 19 40 7 8 8 7 8-6 0-12 0-13-4-28l-4-17-1-9-5 4zM664 474l-2 11-4 16c-3 9-4 11-5 23 0 15 0 15 7 9a87 87 0 0 0 22-44l-5-5-9-8-4-5v3zM322 504l-1 15c-1 13-2 20-4 20-1 0-6-6-10-14l-4-8-1 10c-1 20 4 80 7 101 6 34 18 68 31 91 5 9 13 19 14 19l-1-6a852 852 0 0 1-24-211 142 142 0 0 1-7-17zM826 512l-5 11-4 9-1 31c-1 47-3 57-17 131l-10 49 5-6c32-45 45-90 50-177l2-29v-8l-4 8c-6 10-10 14-11 13-2-2-3-6-4-21l-1-11zM165 521c-10 30-19 73-23 117a2147 2147 0 0 0 1 145c5-46 17-98 32-143l4-14-2-15a909 909 0 0 1-9-97l-3 7zM392 529c1 23 5 37 14 57 7 14 19 31 21 29l-8-29c-5-14-8-28-8-33 0-2-1-6-4-9l-8-16c-8-16-7-16-7 1zM750 529l-9 16c-4 7-5 10-6 18l-9 30c-10 30-10 31-1 19 16-22 24-39 28-62 2-14 4-30 2-30l-5 9z"/><path d="m357 540-1 21c-2 1-7-6-12-15l-6-10c-2-2-2-2-1 10a301 301 0 0 0 45 140l-3-25c-5-34-5-42-5-65v-22l-5-14c-3-8-7-20-8-27l-4-13v20zM984 527l-3 26c-4 39-6 57-11 78l5 23c12 40 23 99 27 133a731 731 0 0 0-12-249c-5-16-6-17-6-11zM437 527c-2 5 3 21 10 32 6 11 20 30 21 28l-3-11c-4-11-6-20-6-26 0-4 0-5-3-6-4-2-13-9-16-14l-3-3zM788 537l-8 24-7 16v20c-1 23-3 39-8 68-3 23-4 26-2 24a378 378 0 0 0 48-150l-6 9c-6 11-11 18-14 18l-1-19 1-18-3 8zM704 536a46 46 0 0 1-16 12l-1 7c-1 5-2 13-5 21l-5 14c0 3 20-23 26-34 4-8 7-19 7-24 0-2-1-2-6 4zM230 630l-1 31-2 45-1 16 4 15c10 40 27 83 45 117a364 364 0 0 0 123 127l-8-12c-45-62-82-125-101-173-9-24-17-50-23-74-3-14-4-15-11-27-8-14-16-34-21-54l-4-11z"/><path d="M301 643a1257 1257 0 0 0-4 32l-2-2c-3-3-3-3-2 3 1 5 2 61 1 62-2 2-12-7-19-16l-3-5v5c2 15 14 51 21 67 17 36 45 68 78 90 12 8 23 14 23 12l-9-14c-50-78-76-152-83-232l-1-10v8zM916 643c-6 21-17 45-27 61-7 12-7 11-12 28a704 704 0 0 1-138 253l23-14a404 404 0 0 0 156-249v-48a1137 1137 0 0 0-2-31z"/><path d="M842 663a457 457 0 0 1-85 214l-12 18c0 2 17-7 33-18a229 229 0 0 0 94-149l-9 8c-8 8-12 11-14 9v-25a192 192 0 0 1 2-41l-2 2-3 2-1-16-1-17-2 13zM182 661l-3 16c-4 14-8 25-13 33l-4 6v14l1 35c2 48 7 77 18 100 3 7 5 9 5 5l3-21c5-46 9-84 10-120l1-26-3-3c-7-10-11-21-13-36l-1-7-1 4zM963 672c0 10-6 27-13 36l-4 5v38a1136 1136 0 0 0 10 130c1 1 1 0 5-7 13-29 20-68 23-129v-18l-4-7c-6-10-10-22-14-45-1-8-3-9-3-3zM205 724l-1 22a221 221 0 0 0 86 174l-19-45-24-57a1223 1223 0 0 1-26-77c-2-5-14-19-15-19l-1 2zM931 740c-8 10-8 10-14 28a1185 1185 0 0 1-68 159 228 228 0 0 0 89-148c3-12 3-45 1-47l-8 8z"/><path d="m209 825 8 45c2 18 2 21 3 64 0 38 0 49-2 62a557 557 0 0 1-34 145 285 285 0 0 0 89-208v-12l-13-14c-20-20-33-41-47-77-4-9-5-10-4-5z"/><path d="M199 843c-1 20-2 26-6 35s-5 10-8 9l-10-13-8-11-1 27c-1 54-8 84-25 111l-5 9c0 1 5 0 15-5 8-4 11-6 18-13 18-17 29-41 36-73a229 229 0 0 0-4-96l-2 20zM932 834v2l1-1v-3l-1 2zM940 836l-4 14c-2 12-2 12-2 44v32l3 13c10 37 23 60 45 74 7 5 19 10 20 9l-4-8c-17-28-23-56-23-110l-1-25v-5l-6 8c-6 10-12 16-14 16-3 0-5-3-7-11-3-9-4-18-5-37 0-13-1-16-2-14z"/><path d="M924 851c-7 16-18 34-25 44-7 9-22 24-28 29l-5 3v26l2 37a289 289 0 0 0 82 160l-3-12a537 537 0 0 1-16-298c-1-1-3 4-7 11zM284 887l5 14c5 14 6 18 7 26l1 5h-3l-8-2h-5v3a677 677 0 0 1 11 174l1 25c2-1 11-14 16-25 22-42 30-103 21-156-3-18-4-21-9-25a219 219 0 0 1-37-40v1zM846 904c-15 18-23 26-33 32l-7 32c-5 34-3 70 5 105 5 21 15 44 25 59l5 7v-4l1-28a874 874 0 0 1 15-167c0-2 0-2-7-2h-8c-3-2-1-9 8-30l5-14-9 10z"/></svg>