<svg version="1.0" xmlns="http://www.w3.org/2000/svg" width="1706.7" height="1706.7" viewBox="0 0 1280 1280"><path d="m1143 126-20 2a490 490 0 0 0-395 294 901 901 0 0 0-68 181l-13-82a533 533 0 0 1 1-110 294 294 0 0 0-9 71v17h-4c-3 0-4 0-5-2l-1-2v2l-4 8c-8 11-9 20-6 36 3 12 2 15-3 39l-5 21-1 1a701 701 0 0 0-20-66c-21-58-59-137-91-185a503 503 0 0 0-197-180c-58-29-117-43-185-45H91v8l5 79c19 182 74 336 155 431a318 318 0 0 0 130 93c23 8 50 14 74 15 18 0 23 1 22 2 0 1-10 4-21 6-27 7-41 14-63 28-60 41-93 105-112 218a484 484 0 0 0-4 144c3 26 8 74 10 75 1 2 39-16 57-26 86-52 161-153 218-295a1490 1490 0 0 0 50-148v35a503 503 0 0 0 18 136c8 27 7 25 8 23s8-40 12-73a709 709 0 0 0 8-112 921 921 0 0 0 79 206 526 526 0 0 0 248 254l1-14a2282 2282 0 0 1 8-104c1-24 0-48-3-73l-4-33c-6-51-27-111-52-149a225 225 0 0 0-137-97c-5-2-2-3 8-3 16-2 47-6 57-9 43-11 73-26 101-48 66-52 115-126 152-229a1207 1207 0 0 0 62-329l1-12h-16l-20 1zm0 53c0 9-5 49-11 77-16 76-41 139-72 175a87 87 0 0 1-62 34c-42 2-77-30-88-79-2-9-2-33 0-43 9-40 34-80 67-109a295 295 0 0 1 163-60c2 1 3 1 3 5zm-983-1c44 7 89 25 123 51 27 20 47 44 61 73 21 43 23 82 5 116-5 10-8 15-16 23a78 78 0 0 1-59 26c-14 0-23-3-35-8-48-25-90-121-107-247-4-23-5-33-4-36h10l22 2zm730 102c6 12 9 31 8 49-3 53-24 84-76 116l-30 18c-28 16-45 29-61 46-12 12-17 20-26 37l-8 15c-2-1-2-16 0-28 5-27 16-64 20-64l3 6 3 6 3-14c4-20 11-37 20-51 6-8 13-17 15-17l-1 11c-3 10-5 21-4 21l7-13c14-28 30-49 41-56 5-3 9-4 8-2-6 12-10 29-9 31l3-3c3-7 8-13 15-19s26-16 27-14c1 0 0 4-3 10l-4 11 7-7 14-16c18-20 24-37 24-64l1-13 3 4zm-505 36c2 7 10 24 16 33 6 8 21 25 26 29l2 3v-4l-5-13-4-10c1-1 6 1 15 6 9 6 23 19 28 28l3 6v-7l-3-15c-5-15-5-16 2-11 16 12 33 37 47 68 1 2 1 2 1-1l-3-14-2-12c0-7 17 15 26 34a177 177 0 0 1 13 43c0 5 1 4 4-3 0-3 2-5 2-5 2 0 13 36 17 51 3 13 6 36 4 40 0 3-2 2-4-4-5-17-16-33-33-49-13-13-28-24-54-40l-59-39c-32-24-47-51-51-87-2-18 2-47 8-60l1-3 1 15 2 21zm62 162c37 5 71 26 96 56a256 256 0 0 1 47 97c4 16 5 23 3 20l-10-20c-5-10-11-22-15-27-24-35-53-52-82-48-14 2-20 5-42 19-10 8-11 7-10-4 0-7 0-10 3-19l4-12a107 107 0 0 0-41 56c-4 10-7 26-7 32 0 5-2 6-6 2-3-4-7-11-11-24-4-11-4-11-6 2-3 24 1 46 10 66 10 20 26 36 46 45l8 4c1 5-16 4-32-1-20-7-33-15-48-31-35-37-45-87-26-140 8-25 20-42 39-56 12-9 21-13 34-15l16-3c4-2 16-2 31 1zm403-2c21 2 42 10 56 21 24 18 40 47 45 81s-7 82-28 109a99 99 0 0 1-66 37h-23l9-5c22-10 40-28 50-49 6-12 7-19 8-33 0-16-3-43-5-43l-2 7c-3 9-9 28-12 31-2 4-4 3-5-4-3-32-14-58-33-76l-16-12 4 19c4 16 5 22 3 22l-13-9c-23-16-41-21-60-16-16 4-30 13-44 27-12 13-20 25-31 46l-10 19c-3 0 4-29 11-47 18-46 50-85 86-107 10-6 37-16 50-17 12-2 14-2 26-1zm-651 23c53 26 90 32 118 20l6-2-4 11c-15 32-22 68-19 97a160 160 0 0 0 14 54c0 2-4 1-11-3-11-7-20-15-29-27-13-16-22-32-44-79-13-27-17-34-34-56-15-19-17-23-15-23l18 8zm890-7-4 5c-15 17-34 49-50 85-10 23-20 43-27 52-8 11-24 27-38 38-11 8-14 9-14 7l5-16c7-18 9-26 10-41 3-28-3-56-19-91l-6-14c0-1 1-1 13 3 12 5 21 6 34 5a230 230 0 0 0 91-32c3-2 5-3 5-1zM505 592c28 9 56 38 78 80 9 18 19 45 17 47l-11-10c-20-22-30-30-44-35-16-6-25-6-47 2-17 5-24 6-32 5-17-3-28-17-28-36 0-13 7-29 16-39 6-7 8-8 23-13 12-4 16-4 28-1zm283 5c27 7 41 27 40 56-1 14-5 23-14 28-4 2-6 2-14 2s-12 0-25-4l-23-5c-16-1-38 4-53 13-8 5-20 17-24 24-6 11-6 9-2-5 12-43 37-81 64-99 8-5 13-7 24-9l7-2c3-2 12-1 20 1zm-33 96 29 4c11 0 14 1 14 2 0 2-10 10-17 13a146 146 0 0 1-68 14 124 124 0 0 0-37 4c-1-1 4-9 8-15 5-7 14-13 29-20l13-6h7l22 4zm-209-2c20 4 35 14 44 30 4 7 5 11 2 10l-7-3c-6-2-8-2-33-3-30 0-35 0-47-6-6-2-26-14-32-19-3-2-1-3 6-2 11 2 32 0 44-5 7-3 13-4 23-2zm177 53c46 8 77 25 94 51 8 12 18 32 32 65 21 50 28 61 45 77l10 11c-2 2-37-13-53-23-18-11-36-26-51-40-8-9-15-19-29-42-26-43-47-71-66-86l-16-10-9-5c0-2 29 0 43 2zm-134-1-2 2c-26 9-50 35-93 103a213 213 0 0 1-131 101l6-8c24-24 36-45 53-88 16-39 25-55 38-68 14-13 30-22 52-31a188 188 0 0 1 77-11zm107 15c24 19 43 49 49 83 2 11 2 9-1 52a257 257 0 0 0 3 71c-2 4-16-20-25-42-10-25-13-39-14-67-3-44-9-75-21-100-1-2 3-1 9 3zm-114-2-3 7c-5 10-10 26-12 42a586 586 0 0 0-5 66c-4 21-13 48-21 67-7 14-18 29-19 26l1-6c2-10 2-32 1-59-3-28-2-49 1-62 6-27 17-45 43-70 11-11 14-13 14-11zm178 96c16 19 33 59 40 92 2 12 4 21 6 51 3 38 5 49 14 66l5 13a143 143 0 0 1-64-92l-3-12v-31c1-68 1-73-1-80-4-13-4-14 3-7zm-245-1-3 13-3 11 1 45c1 44 1 45-1 56-4 22-13 45-25 62-6 10-21 25-30 31-6 4-11 6-11 5l3-8c8-16 12-33 15-63a275 275 0 0 1 53-154l1 2zm398 140 9 5c7 6 17 22 23 39a423 423 0 0 1 16 138c-2 0-32-16-46-25-53-35-75-77-61-117 3-10 8-17 16-26 5-5 9-8 18-12 13-7 15-7 25-2zm-541-1c30 7 52 42 48 73-2 14-7 26-18 41-7 11-24 27-36 36-16 12-56 35-59 34v-36c2-42 6-67 14-93 8-23 22-45 36-54 5-3 7-4 15-1z"/><path d="m491 244-6 4c-2 2-2 2 0 5 6 8 18 16 50 32 24 12 29 15 39 26 9 9 15 18 23 32 7 13 6 8-2-9-13-26-26-44-48-65-25-23-43-31-56-25zM761 244c-11 3-22 11-36 22a196 196 0 0 0-59 84l4-8a127 127 0 0 1 79-66c17-5 23-8 29-13 6-6 7-9 6-14 0-4-1-4-4-6-4-2-13-1-19 1zM648 409h1v-2l-1 2zM622 421h1v-2l-1 2zM623 425z"/></svg>