<svg width="1501" height="480" fill="none" xmlns="http://www.w3.org/2000/svg"><path d="m534 225 7-23-23 1c-2 0-17 0-30-10h3c14 0 28-9 33-21l10-22-24-1s-9-2-19-12a37 37 0 0 0-39-10l1-5c4-21-10-37-10-37l-17-21-11 25s-3 6-8 9c-1-7-5-16-12-24a58 58 0 0 0-50-16l-21 4c1-5 3-13 8-20l12-18-29 3-10-20-18 9-17-16-16 16-18-9-10 20-29-3 12 18c5 7 7 15 8 20l-20-4-9-1c-9 0-27 2-42 17-7 8-11 17-12 24-5-3-8-9-8-9l-11-25-18 22c-2 2-12 17-10 36l2 5-12-2c-10 0-19 4-27 12-10 10-19 12-19 12l-24 1 10 22c5 12 19 21 33 21h3a55 55 0 0 1-29 10l-24-1 7 23c4 11 16 30 39 32-3 11-8 22-20 27l-18 8 10 16c5 9 18 20 36 20l11-2 4 13c5 16 0 27 0 27l-8 18 19 5a55 55 0 0 0 23 1l7-2 9 12c12 13 30 19 52 19h16l-33 13 25 12 31 14-3 9 9 3c0 1 17 8 44 10h21c27-2 44-9 45-10l8-4-3-8 31-14 25-12-33-13h16c22 0 40-6 52-19l9-12a44 44 0 0 0 16 3c8 0 14-2 14-2l19-5-8-18s-5-11 0-27l4-13 11 2c23 0 34-17 37-20l9-17-18-7c-12-5-17-16-20-27 23-2 35-21 39-32ZM219 69Z" fill="#fff"/><path d="M270 68c-18 0-32 6-35 14l35 14 36-14c-3-8-17-14-36-14ZM271 439h-1c-11 0-27-2-34-5l-9 25a169 169 0 0 0 87 0l-9-25c-7 3-23 5-34 5ZM339 415l-30 12 7 20c14-4 25-8 34-13l-15-5 4-14ZM202 415l4 14-15 5c9 5 21 9 34 13l7-20-30-12ZM270 45c15 0 28 4 39 9l4-11-4 1h-4l-2-4-5-11-10 5-4 2-3-3-10-10-11 10-3 3-4-2-10-5-5 11-2 4h-4l-4-1 4 11c11-5 24-9 38-9ZM485 175l6 1c8 0 15-5 18-11 0 0-15-1-30-16-5-6-11-7-15-7-7 0-12 4-12 4 19 10 22 26 33 29ZM50 176l6-1c11-3 14-19 33-29 0 0-5-4-12-4-4 0-10 1-15 7-15 15-30 16-30 16 3 6 10 11 18 11Z" fill="#fff"/><path d="M490 241h1c20 0 27-21 27-21h-1c-3 0-33-1-54-28-13-17-25-32-47-38l-2-1v-2c-1-3 1-6 7-10 30-20 9-45 9-45s-8 20-28 20h-8l-4-1s6-15-7-29a41 41 0 0 0-36-12c7 9 12 23 4 32-7 8-23 9-23 20 0 5 4 11 12 16 25 15 50 36 60 64 13 34-2 57-22 70 0 0 6 6 16 7h5c20 0 30-9 30-9s-1 12-12 24c-9 11-22 18-41 18 0 0 0 9 8 16 5 5 18 7 18 7s-23 4-26 38c-1 19-6 25-6 25 54 0 53-46 53-46a26 26 0 0 0 24 18l9-1s-7-16 0-40c7-19 6-33 6-33s7 11 25 11c15 0 22-11 22-11-36-15-32-63-32-63s4 3 13 4Zm-11 50c-14-7-23-26-26-33-2 37-21 64-42 89-12 13-16 26-16 26s3-15 12-26c21-25 40-55 41-90 1-24-5-43-15-60 6 17 5 38-14 57 0 0 37-44-15-89-20-17-43-28-55-36 43 14 63-1 63-1-13 12-31 11-42 10l10 4c35 20 67 51 73 95 8 43 26 54 26 54ZM139 339s12-2 18-7c8-7 8-16 8-16-19 0-32-7-41-18-11-12-12-24-12-24s10 9 30 9h5c10-1 16-7 16-7-21-13-35-36-22-70 10-28 35-49 60-64 8-5 12-11 12-16 0-11-16-12-23-20-8-9-3-23 4-32h-6c-7 0-19 1-30 12-13 14-7 29-7 29l-4 1h-8c-20 0-28-20-28-20s-21 25 9 45c6 4 8 7 7 10v2l-2 1c-22 6-34 21-47 38a72 72 0 0 1-54 28h-1s7 21 27 21h1c9-1 13-4 13-4s4 48-32 63c0 0 7 11 22 11 18 0 25-11 25-11s-1 14 6 33c7 24 0 40 0 40l9 1h5c15-4 19-18 19-18s-1 46 53 46c0 0-5-6-6-25-3-34-26-38-26-38Zm-9 8c-21-25-40-52-42-89-3 6-12 26-26 33 0 0 18-11 26-54 6-44 38-75 73-95l10-4c-11 1-29 2-42-10 0 0 20 15 63 1-12 8-35 19-55 36-52 45-15 89-15 89a54 54 0 0 1-14-57c-10 17-16 36-15 60 1 35 20 65 41 90 9 11 12 26 12 26s-4-13-16-26ZM231 170a54 54 0 0 1 5 7l1 1 2 4c8 13 20 21 31 21 12 0 24-8 32-21l2-4 1-1a57 57 0 0 1 5-7h1c4-4 9-7 15-9l-3-2-11-6-11-6-30 16h-1l-30-16-11 6-11 6-3 2c6 2 11 5 15 9h1Zm27-1h26v9c-3-4-9-3-9-3v12s0 6 2 9h-12c2-3 2-9 2-9v-12s-6-1-9 3v-9Z" fill="#fff"/><path d="M268 152v-51l-33-11 9 50 24 12Zm-7-38v8l-2-1s-2 0-6-4c-7-5-7-10-7-10l15 7ZM297 140l9-50-33 11v51l24-12Zm-17-26 15-7s0 5-7 10c-4 4-6 4-6 4l-2 1v-8ZM222 270l9 1a18 18 0 0 0 1-2v-8l-4-5c-1-2-3-4-5-4-4 0-7 2-9 3-1 7 4 14 8 15ZM294 243l-19 18v1h-38l-1 9v1l44 8 23-16c-4-5-4-12-4-16l-5-5Z" fill="#fff"/><path d="M299 198a39 39 0 0 1-28 13h-1a39 39 0 0 1-8-1c0 2-1 6 1 10 2 3 5 6 9 7l2 1v2s0 11 12 14l5-5c-2-6-1-12 3-15-1 1-2 15 9 20l2 1v2c-1 1-4 15 9 20l3 1-1 2c0 1-6 13 7 20h28v-22c-10-1-14-9-15-14-5-1-9-3-11-6-6-8-1-15-1-15s0 7 5 12c2 2 5 4 9 4h2v2c0 1 1 11 11 12v-44c0-7 2-14 4-21h-56ZM224 219l-1 28 4 1 8-28-4-8-7 7ZM312 349l1 1c5 1 6 19 15 20l2 1c3 0 4-1 6-3l-8-12c-4-6-8-13-16-13l-5 1c-3-2-6-2-9-2l-11 2-18-2c-3 0-5-3-6-4v-2c-1-15-12-21-16-21l-1-4-4 5-13-7 9 11-8 9v3l3 3 5-3h5c2 0 4 0 4-2-1 6-6 15-2 23l2 5-16-2-7 13c-3 4-3 8-1 11l3 3 5-7-2-1v-4l5-7 19 4 1-2c1-2 3-2 5-2h2l15 2c7 0 13-2 16-5 7 10 21 11 20 17l-4 17 7-1 4-18v-4l-6-8-3-13s0-2 2-2Zm-71-25-1-1 2-2 1 2-2 1Z" fill="#fff"/><path d="M216 366s6-3 6-5v-5l7-5 11 2s-2-2-2-6l-10-2-10 6c-5 3-5 9-4 12l2 3ZM295 395h7l6-17-12-7c1 2 6 5 5 8l-6 16Z" fill="#fff"/><path d="M351 295H190v60c0 25 18 40 44 40 22 0 28 1 36 9 6-6 11-8 20-9l1-1 5-15-9-10-11 1a88 88 0 0 1-17-1h-1l-1 2-2 3-3-1-16-4-2 4 2 2-1 3-5 9-4 4-4-5-2-3c-3-3-4-8-2-13l-5 2-2-4-1-3c-3-5-2-13 5-18l12-7 12 3 1-7h-1l-6 3-7-5s-3-2 0-5l6-9-16-20 25 10 1-2 4-4 3 4c2 1 2 2 2 3 7 3 19 11 21 23l-4 2 2 1 17 2h2l9-2c3 0 6 0 9 2l4-1h1c10 0 14 7 18 13l2 2 8 12 2 3-3 3c-1 2-4 4-9 4a17 17 0 0 1-6-1v3l-4 16c19-4 31-18 31-38v-60ZM190 290h125c-6-6-6-14-4-20-2 0-4-2-5-3l-24 17-1 1-49-9h-5a5 5 0 0 1-9 2l-1-4v-1c-5-4-9-11-7-20v-1h1l2-2h-4l-2-3 3-2 9 1v-29l13-13 8 16-8 29 7 1 2 2c0 2-1 2-2 2h-1l-6-1v1l3 3h38l9-9c-9-4-12-11-13-17-5-2-9-5-10-9-3-6-2-11-1-13-5-2-11-6-16-11h-56c2 7 4 14 4 21v71Z" fill="#FFDD2D"/><path d="m242 321-2 2 1 1 2-1-1-2ZM351 430l-10-4 3-9 3-11s-17 9-40 16l-11 3v7l-25 2h-1l-25-2v-7l-11-3c-23-7-40-16-40-16l3 11 3 9-10 4-10 4c12 5 28 14 43 18l-3 9s19 9 50 9h1c31 0 50-9 50-9l-3-9c15-4 31-13 43-18l-10-4Zm-160 4 15-5-4-14 30 12-7 20c-13-4-25-8-34-13Zm80 31c-18 0-38-4-44-6l9-25c7 3 23 5 34 5h1c11 0 27-2 34-5l9 25c-6 2-26 6-43 6Zm45-18-7-20 30-12-4 14 15 5c-9 5-20 9-34 13ZM270 51c19 0 34 6 43 13 0 0 2-15 11-28l-16 2-8-17-15 8-15-15-14 15-16-8-7 17-16-2c9 13 11 28 11 28 9-7 24-13 42-13Zm-38-7h4l2-4 5-11 10 5 4 2 3-3 11-10 10 10 3 3 4-2 10-5 5 11 2 4h4l4-1-4 11c-11-5-24-9-39-9-14 0-27 4-38 9l-4-11 4 1ZM491 247c25 0 33-24 33-26l3-8h-9c-4 0-30-1-50-25l-1-2c-13-16-25-31-46-37l3-2c11-8 18-17 19-27 3-15-7-28-8-28l-6-9-5 10c0 1-7 17-22 17h-4c0-8-1-18-11-29a48 48 0 0 0-34-14l-7 1-11 2 7 8c5 6 9 18 4 24-2 2-5 4-9 5-7 4-16 8-16 19 0 7 6 15 16 21 30 19 49 39 57 61 12 33-4 53-20 63l-7 4 6 6c1 1 9 7 20 8h6l19-2-6 7c-9 10-20 15-36 15l-6 1v6a28 28 0 0 0 15 25c-7 6-14 17-15 36-2 16-5 22-5 22l-7 10h12c19 0 35-6 45-16 6-6 10-14 12-20a32 32 0 0 0 20 8c6 0 11-2 11-2l8-2-4-7s-6-14 1-34c3-9 4-17 5-23 5 2 11 4 19 4 19 0 27-13 28-14l3-6-7-3c-22-9-27-34-28-48l7 1h1Zm18 53s-7 11-22 11c-18 0-25-11-25-11s1 14-6 33c-7 24 0 40 0 40l-9 1h-5c-15-4-19-18-19-18s1 46-53 46c0 0 5-6 6-25 3-34 26-38 26-38s-13-2-18-7c-8-7-8-16-8-16 19 0 32-7 41-18 10-12 12-24 12-24s-10 9-30 9h-5c-10-1-16-7-16-7 20-13 35-36 22-70-10-28-35-49-60-64-8-5-12-11-12-16 0-11 16-12 23-20 8-9 3-23-4-32h6c7 0 19 1 30 12 13 14 7 29 7 29h4l7 1h1c20 0 28-20 28-20s21 25-9 45c-6 4-8 7-7 10v2l2 1c22 6 34 21 47 38 21 27 51 28 54 28h1s-7 21-27 21h-1c-9-1-13-4-13-4s-4 48 32 63Z" fill="#000"/><path d="M448 151c10 5 15 12 19 17 5 6 9 11 16 13l8 2c10 0 20-7 24-15l4-9h-10s-12-1-26-15c-5-6-12-9-19-9-9 0-15 5-16 5l-9 6 9 5Zm16-9c4 0 10 1 15 7 15 15 30 16 30 16-3 6-10 11-18 11l-6-1c-11-3-14-19-33-29 0 0 5-4 12-4ZM453 237c-6-44-38-75-73-95l-10-4c11 1 29 2 42-10 0 0-20 15-63 1 12 8 35 19 55 36 52 45 15 89 15 89 19-19 20-40 14-57 10 16 16 36 15 60-1 35-20 65-41 90-9 11-12 26-12 26s4-13 16-26c21-25 40-52 42-89 2 6 12 26 26 33 0 0-18-11-26-54ZM176 399s-3-6-5-22c-1-19-8-30-15-36l5-4c11-9 10-20 10-22v-5l-6-1a45 45 0 0 1-42-22 63 63 0 0 0 25 2c11-1 19-7 19-8l7-6-7-4c-16-11-33-30-20-63 8-22 27-42 57-61 10-6 16-14 16-21 0-11-10-16-16-19-4-1-7-3-9-5-5-6-1-18 4-24l6-8-10-2-7-1c-8 0-22 2-34 14a36 36 0 0 0-11 29h-4c-15 0-22-16-22-17l-5-10-7 9s-10 13-7 28c1 10 8 19 19 27l3 2c-22 6-33 21-46 37l-2 2a65 65 0 0 1-49 25h-9l3 8c0 2 8 26 33 26h1l7-1c-1 14-6 38-29 48l-6 3 3 6c1 0 9 14 28 14 8 0 14-2 19-4 1 6 2 14 5 22 7 21 1 35 1 35l-4 7 8 2s5 2 11 2a31 31 0 0 0 20-8c2 6 6 13 12 20 10 10 25 16 45 16h12l-7-10Zm-5 3c-54 0-53-46-53-46s-4 14-19 18h-5l-10-1s8-16 1-40c-7-19-6-33-6-33s-7 11-25 11c-15 0-22-11-22-11 36-15 32-63 32-63s-4 3-13 4h-1c-20 0-27-21-27-21h1c3 0 33-1 54-28 13-17 25-32 47-38l2-1v-2c1-3-1-6-7-10-30-20-9-45-9-45s8 20 28 20h1l7-1h4s-6-15 7-29a41 41 0 0 1 36-12c-7 9-12 23-4 32 7 8 23 9 23 20 0 5-4 11-12 16-25 15-50 36-60 64-13 34 1 57 22 70 0 0-6 6-16 7h-5c-20 0-30-9-30-9s1 12 12 24c9 11 22 18 41 18 0 0 0 9-8 16-6 5-18 7-18 7s23 4 26 38c1 19 6 25 6 25Z" fill="#000"/><path d="m50 183 8-2c7-2 11-7 16-13 4-5 9-12 18-17l10-5-9-6c-1 0-7-5-16-5-7 0-14 3-19 9-14 14-26 15-26 15H22l4 9c4 8 14 15 24 15Zm12-34c5-6 11-7 15-7 7 0 12 4 12 4-19 10-22 26-33 29l-6 1c-8 0-15-5-18-11 0 0 15-1 30-16ZM93 258c-1-25 5-44 15-61-6 17-5 38 14 57 0 0-37-44 15-89 20-17 43-28 55-36-43 14-63-1-63-1 13 12 31 11 42 10l-10 4c-35 20-67 51-73 95-8 43-26 54-26 54 14-7 23-27 26-33 2 37 21 64 42 89 12 13 16 26 16 26s-3-15-12-26c-21-25-40-55-41-89ZM258 169v9c3-4 9-3 9-3v12s0 6-2 9h12c-2-3-2-9-2-9v-12s6-1 9 3v-9h-26ZM253 117c4 4 6 4 6 4l2 1v-8l-15-6s0 4 7 9ZM288 117c7-5 7-9 7-9l-15 6v8l2-1s2 0 6-4Z" fill="#000"/><path d="M315 84c0-12-21-23-44-23h-1c-23 0-44 11-44 23l1 3 9 53-9 5-24 14-8 5c-9 6-11 15-6 19 1-7 7-15 18-15 8 0 15 4 20 10l3 5 4 6h-62c5 9 9 19 9 30v136c0 33 26 49 53 49 22 0 25-1 36 10 12-11 15-10 36-10 28 0 54-16 54-49V219c0-11 4-21 9-30h-62l4-6 3-5c5-6 11-10 20-10 11 0 17 8 18 15 5-4 3-13-6-19l-8-5-24-14-9-5 9-53 1-3Zm-80 6 33 11v51l-24-13-9-49Zm7 108c5 6 11 9 16 11-1 2-2 7 0 13 2 4 6 7 11 9 1 6 4 13 13 17l-9 9h-38l-3-3h6l1 1a2 2 0 0 0 0-5l-7-1 8-29-8-16-13 13v30l-9-2-3 2 2 3 4 1-2 1h-1v1c-2 9 2 16 7 20v1l1 4a5 5 0 0 0 4 2c2 0 4-2 5-4h5l49 9 1-1 24-17 4 3c-1 6-1 14 5 20H190v-71c0-7-2-14-4-21h56Zm61 66-23 16-44-8v-1l1-9h38v-1l19-18 5 5c0 4 0 11 4 16Zm-75-8 4 5a51 51 0 0 1-1 9v1l-9-1c-4-1-9-8-8-15 2-1 5-3 9-3 2 0 4 2 5 4Zm-5-9 1-28 7-7 4 8-8 28-4-1Zm79 148h-7l6-16c1-3-4-6-5-8l12 7-6 17Zm17-19-4 18-7 1 4-17c1-6-13-7-20-17-3 4-9 5-16 5a82 82 0 0 1-17-2c-2 0-4 0-5 3l-1 1-19-4-5 8c-1 1-1 2 1 3l1 1-5 7-3-3c-2-3-2-7 1-11l7-13 16 2-2-5c-4-8 1-17 2-23 0 2-2 2-4 2h-5l-5 3-3-3v-3l8-9-9-11 13 7 4-5 1 4c4 0 15 6 16 21v2c1 1 3 4 6 4l18 2 11-2c3 0 6 0 9 2l5-1c8 0 12 7 16 13l8 12c-2 2-3 3-6 3l-2-1c-9-1-10-19-15-20l-1-1c-2 0-2 2-2 2l3 13 7 8-1 4Zm-97-17v2c0 2-6 5-6 5l-2-3c-1-3-1-9 4-12l10-6 10 2c0 4 2 6 2 6l-11-2-7 5v3Zm98 34 4-16v-3l3 1h3c5 0 8-2 9-4l3-3-2-3a286 286 0 0 0-10-14c-4-6-8-13-18-13h-1l-4 1c-3-2-6-2-9-2l-9 2h-2l-17-2-2-1 4-2c-2-13-14-20-21-23 0-1 0-2-2-3l-3-4-4 4-1 2-25-10 16 20-6 9c-3 3 0 5 0 5l6 5 7-3h1l-1 7-12-3-12 7c-7 5-8 13-5 18l1 3 2 4 5-2c-2 5-1 10 2 13l2 3 4 5 4-4 5-9 1-3-2-2 2-4 16 4 3 1 2-3 1-2h3l15 1 11-1 9 10-5 15-1 1c-9 1-14 3-20 9-8-8-14-9-36-9-26 0-44-16-44-40v-60h161v60c0 20-12 34-31 38Zm35-195c-2 7-4 14-4 21v44c-10-1-11-11-11-12v-2h-2c-4 0-7-2-9-4-5-5-5-12-5-12s-5 7 1 15c2 3 6 5 11 6 1 5 5 13 15 14v22h-28c-13-7-7-19-7-20l1-2-3-1c-13-5-10-19-9-20v-2l-2-1c-11-5-10-19-9-20-4 3-5 9-3 15l-5 5c-12-3-12-14-12-14v-2l-2-1c-4-1-7-4-9-7-2-4-1-8-1-10l4 1h9c7-1 15-4 24-13h56Zm-43-45 11 6 3 2c-6 2-11 5-15 9h-1l-2 3-1 1a51 51 0 0 0-5 8c-8 13-20 21-32 21-11 0-23-8-31-21l-2-4-1-1a84 84 0 0 0-5-7h-1c-4-4-9-7-15-9l3-2 11-6 11-6 30 16h1l30-16 11 6Zm-15-13-24 12v-51l33-11-9 50Zm-27-44-35-14c3-8 17-14 35-14 19 0 33 6 36 14l-36 14ZM712 308v-80h48v-29H630v29h48v80h34Zm96-109h-34v109h34V199Zm26 0v109h32v-60l59 60h29V199h-31v60l-58-60h-31Zm188 68 40 41h45l-56-57 54-52h-42l-41 41h-9v-41h-33v109h33v-41h9Zm154-71c-45 0-72 25-72 58 0 32 27 58 72 58 44 0 71-26 71-58 0-33-27-58-71-58Zm0 89c-23 0-37-13-37-31s14-31 37-31c22 0 36 13 36 31s-14 31-36 31Zm198-86h-111v109h34v-38h72v-24h-72v-19h77v-28Zm126 0h-111v109h34v-38h72v-24h-72v-19h77v-28Z" fill="#000"/></svg>