<svg height="1421" viewBox="-6.9 -3.7 82 46.8" width="2500" xmlns="http://www.w3.org/2000/svg"><path d="M21 8a51 51 0 0 1 9 1l9 2c2 0 4-2 4-4s-2-3-4-3a13 13 0 0 0-4 0h1a26 26 0 0 1 15-4c6 0 11 2 16 6a20 20 0 0 1 6 18 20 20 0 0 1-12 15 24 24 0 0 1-14 0c-6-1-12-5-18-7a47 47 0 0 0-10-3 9 9 0 0 0 4-1c2-1 2-3 1-4-1-2-4-2-5-3a24 24 0 0 0-10-1 15 15 0 0 0-7 3 6 6 0 0 0-2 2c3-8 9-7 13-10a2 2 0 0 0-2-4 7 7 0 0 0-2 2H8s3-5 13-5z" fill="#07f"/><path d="M24 24zm32-11c-4 0-6 3-10 5-8 4-12 2-12 3l10 5a27 27 0 0 0 12 3 8 8 0 1 0 0-16z" fill="#fff"/></svg>